<svg id="레이어_1" data-name="레이어 1" xmlns="http://www.w3.org/2000/svg" viewBox="0 0 197.02 54.55"><defs><style>.cls-1{fill:#262626;}.cls-2{fill:#bfbfbf;}</style></defs><path class="cls-1" d="M17.75,36.64C15,43.39,12,46.72,7.54,48.52l-1-1c4.59-1.8,7-4.86,9.35-9.81L7.58,17.79H9L14.15,30c.81,1.93,1.71,4.14,2.38,6.16h.09c.72-1.89,1.8-4.45,2.52-6.16l5.09-12.24h1.34Z"/><path class="cls-1" d="M44.83,38.17V34.66h0c-.4,1.94-2.79,3.92-7,3.92-4.46,0-7.83-2.48-7.83-6.84V17.79h1.39V31.65c0,3.69,2.7,5.71,6.57,5.71s6.88-2,6.88-5.71V17.79h1.4V38.17Z"/><path class="cls-1" d="M67.23,20.54a10.74,10.74,0,0,0-5.8-1.76A8.85,8.85,0,0,0,52.21,28a8.91,8.91,0,0,0,9.22,9.22,10.54,10.54,0,0,0,5.85-1.44L67,37.23a11.48,11.48,0,0,1-5.63,1.17c-6.11,0-10.57-4.23-10.57-10.44s4.32-10.39,10.57-10.39a12.12,12.12,0,0,1,6.21,1.62Z"/><path class="cls-1" d="M87.34,38.17V24.32c0-3.69-2.74-5.72-6.61-5.72s-6.84,2-6.84,5.72V38.17H72.5v-32h1.39V21.26h0c.36-2,2.83-3.87,6.92-3.87,4.59,0,7.88,2.47,7.88,6.84V38.17Z"/><path class="cls-1" d="M111.41,26.48l-1,1H94.86A9,9,0,0,0,104,37.32a10.07,10.07,0,0,0,5.89-1.8l-.23,1.53a9.51,9.51,0,0,1-5.75,1.53A10.31,10.31,0,0,1,93.37,28c0-6.16,4.5-10.57,9.54-10.57,5.53,0,8.54,3.87,8.54,8.05A8.7,8.7,0,0,1,111.41,26.48ZM103,18.6c-4.32,0-7.6,4-8,7.65H110a3.9,3.9,0,0,0,0-.81A6.68,6.68,0,0,0,103,18.6Z"/><path class="cls-1" d="M125.62,38.58A10.32,10.32,0,0,1,115,28a10.64,10.64,0,0,1,21.28,0A10.36,10.36,0,0,1,125.62,38.58Zm0-19.93A9.07,9.07,0,0,0,116.4,28a9.25,9.25,0,1,0,18.49,0A9.11,9.11,0,0,0,125.62,18.65Z"/><path class="cls-1" d="M155.77,38.17V24.32c0-3.69-2.75-5.72-6.62-5.72s-6.83,2-6.83,5.72V38.17h-1.4V17.79h1.35V21.3h0c.4-1.93,2.74-3.91,7-3.91,4.45,0,7.87,2.47,7.87,6.84V38.17Z"/><path class="cls-2" d="M164.11,38.35a3.36,3.36,0,0,1-3.41-3.64c0-2.73,2-5.63,4.7-7l1.24.57a8.55,8.55,0,0,0-4.25,4.37,2.28,2.28,0,0,1,1.78-.8,3.15,3.15,0,0,1,3.25,3.27A3.2,3.2,0,0,1,164.11,38.35Zm0-5.41A2,2,0,0,0,162,34.52a4.18,4.18,0,0,0,0,.5,2.24,2.24,0,0,0,2.16,2.29,2.19,2.19,0,0,0,0-4.37Z"/><path class="cls-2" d="M172.07,38.35c-1.84,0-3.42-1.76-3.42-5.3s1.58-5.28,3.42-5.28,3.43,1.77,3.43,5.28S173.88,38.35,172.07,38.35Zm0-9.48c-1.13,0-2.17,1.27-2.17,4.18s1,4.19,2.17,4.19,2.18-1.25,2.18-4.19S173.19,28.87,172.07,28.87Z"/><path class="cls-2" d="M180.23,38.35c-1.84,0-3.42-1.76-3.42-5.3s1.58-5.28,3.42-5.28,3.43,1.77,3.43,5.28S182,38.35,180.23,38.35Zm0-9.48c-1.13,0-2.17,1.27-2.17,4.18s1,4.19,2.17,4.19,2.18-1.25,2.18-4.19S181.36,28.87,180.23,28.87Z"/><path class="cls-2" d="M188.4,38.35c-1.85,0-3.43-1.76-3.43-5.3s1.58-5.28,3.43-5.28,3.42,1.77,3.42,5.28S190.2,38.35,188.4,38.35Zm0-9.48c-1.14,0-2.18,1.27-2.18,4.18s1,4.19,2.18,4.19,2.17-1.25,2.17-4.19S189.52,28.87,188.4,28.87Z"/></svg>